<?xml version="1.0" encoding="UTF-8" standalone="no"?>
<!-- Creator: CorelDRAW -->

<svg
   xmlns:dc="http://purl.org/dc/elements/1.1/"
   xmlns:cc="http://creativecommons.org/ns#"
   xmlns:rdf="http://www.w3.org/1999/02/22-rdf-syntax-ns#"
   xmlns:svg="http://www.w3.org/2000/svg"
   xmlns="http://www.w3.org/2000/svg"
   xmlns:xlink="http://www.w3.org/1999/xlink"
   xmlns:sodipodi="http://sodipodi.sourceforge.net/DTD/sodipodi-0.dtd"
   xmlns:inkscape="http://www.inkscape.org/namespaces/inkscape"
   xml:space="preserve"
   width="500.00095"
   height="313.95999"
   style="fill-rule:evenodd"
   viewBox="0 0 141.11138 88.606486"
   id="svg2"
   version="1.1"
   inkscape:version="0.47 r22583"
   sodipodi:docname="Glee red-yellow.svg"><metadata
   id="metadata20"><rdf:RDF><cc:Work
       rdf:about=""><dc:format>image/svg+xml</dc:format><dc:type
         rdf:resource="http://purl.org/dc/dcmitype/StillImage" /><dc:title /></cc:Work></rdf:RDF></metadata><sodipodi:namedview
   pagecolor="#ffffff"
   bordercolor="#666666"
   borderopacity="1"
   objecttolerance="10"
   gridtolerance="10"
   guidetolerance="10"
   inkscape:pageopacity="0"
   inkscape:pageshadow="2"
   inkscape:window-width="1280"
   inkscape:window-height="744"
   id="namedview18"
   showgrid="false"
   inkscape:zoom="1.159893"
   inkscape:cx="250.00048"
   inkscape:cy="156.97999"
   inkscape:window-x="-4"
   inkscape:window-y="-4"
   inkscape:window-maximized="1"
   inkscape:current-layer="svg2" />
 <defs
   id="defs4"><linearGradient
   id="linearGradient3734"><stop
     style="stop-color:#ffcc00;stop-opacity:1;"
     offset="0"
     id="stop3736" /><stop
     style="stop-color:#ffe373;stop-opacity:1;"
     offset="1"
     id="stop3738" /></linearGradient><linearGradient
   id="linearGradient3726"><stop
     style="stop-color:#ffcc00;stop-opacity:1;"
     offset="0"
     id="stop3728" /><stop
     style="stop-color:#ffe681;stop-opacity:1;"
     offset="1"
     id="stop3730" /></linearGradient><linearGradient
   id="linearGradient3666"><stop
     style="stop-color:#b0e813;stop-opacity:0.68115944;"
     offset="0"
     id="stop3668" /><stop
     id="stop3670"
     offset="1"
     style="stop-color:#a7cc40;stop-opacity:1;" /></linearGradient><linearGradient
   id="linearGradient3617"><stop
     id="stop3625"
     offset="0"
     style="stop-color:#ffea8c;stop-opacity:1;" /><stop
     style="stop-color:#ffd727;stop-opacity:1;"
     offset="1"
     id="stop3621" /></linearGradient><inkscape:perspective
   sodipodi:type="inkscape:persp3d"
   inkscape:vp_x="0 : 495 : 1"
   inkscape:vp_y="0 : 1000 : 0"
   inkscape:vp_z="765 : 495 : 1"
   inkscape:persp3d-origin="382.5 : 330 : 1"
   id="perspective22" />
  <style
   type="text/css"
   id="style6">
   
    .fil0 {fill:#1F1A17;fill-rule:nonzero}
   
  </style>
 <inkscape:perspective
   id="perspective2839"
   inkscape:persp3d-origin="0.5 : 0.33333333 : 1"
   inkscape:vp_z="1 : 0.5 : 1"
   inkscape:vp_y="0 : 1000 : 0"
   inkscape:vp_x="0 : 0.5 : 1"
   sodipodi:type="inkscape:persp3d" /><radialGradient
   inkscape:collect="always"
   xlink:href="#linearGradient3617"
   id="radialGradient3623"
   cx="197.55556"
   cy="197.55556"
   fx="197.55556"
   fy="197.55556"
   r="197.55556"
   gradientTransform="translate(0,5.8987258e-6)"
   gradientUnits="userSpaceOnUse" />
  
  
  
  
  
 <radialGradient
   inkscape:collect="always"
   xlink:href="#linearGradient3617"
   id="radialGradient2858"
   gradientUnits="userSpaceOnUse"
   gradientTransform="translate(0,5.8987258e-6)"
   cx="197.55556"
   cy="197.55556"
   fx="197.55556"
   fy="197.55556"
   r="197.55556" /><radialGradient
   inkscape:collect="always"
   xlink:href="#linearGradient3617"
   id="radialGradient2866"
   gradientUnits="userSpaceOnUse"
   gradientTransform="matrix(0.32061712,0,0,0.32061712,5.8e-7,1.89e-6)"
   cx="197.55556"
   cy="197.55556"
   fx="197.55556"
   fy="197.55556"
   r="197.55556" /><radialGradient
   inkscape:collect="always"
   xlink:href="#linearGradient3617"
   id="radialGradient3648"
   gradientUnits="userSpaceOnUse"
   gradientTransform="matrix(0.32061712,0,0,0.32061712,5.8e-7,1.89e-6)"
   cx="197.55556"
   cy="197.55556"
   fx="197.55556"
   fy="197.55556"
   r="197.55556" /><inkscape:perspective
   id="perspective3680"
   inkscape:persp3d-origin="0.5 : 0.33333333 : 1"
   inkscape:vp_z="1 : 0.5 : 1"
   inkscape:vp_y="0 : 1000 : 0"
   inkscape:vp_x="0 : 0.5 : 1"
   sodipodi:type="inkscape:persp3d" /><inkscape:perspective
   id="perspective3707"
   inkscape:persp3d-origin="0.5 : 0.33333333 : 1"
   inkscape:vp_z="1 : 0.5 : 1"
   inkscape:vp_y="0 : 1000 : 0"
   inkscape:vp_x="0 : 0.5 : 1"
   sodipodi:type="inkscape:persp3d" /><inkscape:perspective
   id="perspective2846"
   inkscape:persp3d-origin="0.5 : 0.33333333 : 1"
   inkscape:vp_z="1 : 0.5 : 1"
   inkscape:vp_y="0 : 1000 : 0"
   inkscape:vp_x="0 : 0.5 : 1"
   sodipodi:type="inkscape:persp3d" /><inkscape:perspective
   id="perspective2860"
   inkscape:persp3d-origin="0.5 : 0.33333333 : 1"
   inkscape:vp_z="1 : 0.5 : 1"
   inkscape:vp_y="0 : 1000 : 0"
   inkscape:vp_x="0 : 0.5 : 1"
   sodipodi:type="inkscape:persp3d" /><inkscape:perspective
   id="perspective2894"
   inkscape:persp3d-origin="0.5 : 0.33333333 : 1"
   inkscape:vp_z="1 : 0.5 : 1"
   inkscape:vp_y="0 : 1000 : 0"
   inkscape:vp_x="0 : 0.5 : 1"
   sodipodi:type="inkscape:persp3d" /><inkscape:perspective
   id="perspective3700"
   inkscape:persp3d-origin="0.5 : 0.33333333 : 1"
   inkscape:vp_z="1 : 0.5 : 1"
   inkscape:vp_y="0 : 1000 : 0"
   inkscape:vp_x="0 : 0.5 : 1"
   sodipodi:type="inkscape:persp3d" /><inkscape:perspective
   id="perspective3736"
   inkscape:persp3d-origin="0.5 : 0.33333333 : 1"
   inkscape:vp_z="1 : 0.5 : 1"
   inkscape:vp_y="0 : 1000 : 0"
   inkscape:vp_x="0 : 0.5 : 1"
   sodipodi:type="inkscape:persp3d" /><inkscape:perspective
   id="perspective3771"
   inkscape:persp3d-origin="0.5 : 0.33333333 : 1"
   inkscape:vp_z="1 : 0.5 : 1"
   inkscape:vp_y="0 : 1000 : 0"
   inkscape:vp_x="0 : 0.5 : 1"
   sodipodi:type="inkscape:persp3d" /><inkscape:perspective
   id="perspective3793"
   inkscape:persp3d-origin="0.5 : 0.33333333 : 1"
   inkscape:vp_z="1 : 0.5 : 1"
   inkscape:vp_y="0 : 1000 : 0"
   inkscape:vp_x="0 : 0.5 : 1"
   sodipodi:type="inkscape:persp3d" /><inkscape:perspective
   id="perspective3793-7"
   inkscape:persp3d-origin="0.5 : 0.33333333 : 1"
   inkscape:vp_z="1 : 0.5 : 1"
   inkscape:vp_y="0 : 1000 : 0"
   inkscape:vp_x="0 : 0.5 : 1"
   sodipodi:type="inkscape:persp3d" /><inkscape:perspective
   id="perspective3824"
   inkscape:persp3d-origin="0.5 : 0.33333333 : 1"
   inkscape:vp_z="1 : 0.5 : 1"
   inkscape:vp_y="0 : 1000 : 0"
   inkscape:vp_x="0 : 0.5 : 1"
   sodipodi:type="inkscape:persp3d" /><inkscape:perspective
   id="perspective3899"
   inkscape:persp3d-origin="0.5 : 0.33333333 : 1"
   inkscape:vp_z="1 : 0.5 : 1"
   inkscape:vp_y="0 : 1000 : 0"
   inkscape:vp_x="0 : 0.5 : 1"
   sodipodi:type="inkscape:persp3d" /><inkscape:perspective
   id="perspective4141"
   inkscape:persp3d-origin="0.5 : 0.33333333 : 1"
   inkscape:vp_z="1 : 0.5 : 1"
   inkscape:vp_y="0 : 1000 : 0"
   inkscape:vp_x="0 : 0.5 : 1"
   sodipodi:type="inkscape:persp3d" /><inkscape:perspective
   id="perspective4168"
   inkscape:persp3d-origin="0.5 : 0.33333333 : 1"
   inkscape:vp_z="1 : 0.5 : 1"
   inkscape:vp_y="0 : 1000 : 0"
   inkscape:vp_x="0 : 0.5 : 1"
   sodipodi:type="inkscape:persp3d" /><inkscape:perspective
   id="perspective4203"
   inkscape:persp3d-origin="0.5 : 0.33333333 : 1"
   inkscape:vp_z="1 : 0.5 : 1"
   inkscape:vp_y="0 : 1000 : 0"
   inkscape:vp_x="0 : 0.5 : 1"
   sodipodi:type="inkscape:persp3d" /><inkscape:perspective
   id="perspective4242"
   inkscape:persp3d-origin="0.5 : 0.33333333 : 1"
   inkscape:vp_z="1 : 0.5 : 1"
   inkscape:vp_y="0 : 1000 : 0"
   inkscape:vp_x="0 : 0.5 : 1"
   sodipodi:type="inkscape:persp3d" /></defs>
 

<g
   id="g2855"
   transform="matrix(1.7006138,0,0,1.7006138,-3.1752438e-7,-0.22624432)"><g
     style="fill:#f4d812;fill-opacity:1;stroke:#f4d812;stroke-width:4.23333359;stroke-miterlimit:4;stroke-opacity:1;stroke-dasharray:none"
     id="g4215"><path
       style="fill:#f4d812;fill-opacity:1;fill-rule:nonzero;stroke:#f4d812;stroke-width:4.23333359;stroke-miterlimit:4;stroke-opacity:1;stroke-dasharray:none"
       d="m 24.681397,13.731388 -4.542014,1.164167 0.670278,2.592916 c -2.867982,-1.668804 -5.918304,-2.009733 -9.145764,-1.181805 -3.4632415,0.888413 -6.0738815,2.930788 -7.8757635,6.02368 -1.6768175,2.878136 -2.0816005,6.300349 -1.2611805,9.498542 1.8253935,7.115817 8.697329,10.97345 15.822083,9.145764 3.096538,-0.794343 5.587763,-2.398465 7.187847,-5.141736 l 0.07056,0.299861 c 1.191699,4.645524 -1.680567,8.316777 -6.252986,9.489722 -2.629829,0.67462 -5.875842,0.182344 -7.531806,-1.799167 l -5.0799995,1.296459 c 3.1965,4.389703 8.2843085,5.93271 14.0493745,4.453819 8.732334,-2.240073 10.756912,-9.066248 9.04875,-15.725069 L 24.681401,13.731388 z"
       id="path3960" /><path
       style="fill:#f4d812;fill-opacity:1;fill-rule:nonzero;stroke:#f4d812;stroke-width:4.23333359;stroke-miterlimit:4;stroke-opacity:1;stroke-dasharray:none"
       d="M 28.420235,4.4707636 36.43325,35.707393 32.080113,36.824086 24.067098,5.5874576 28.420235,4.4707636 z"
       id="path3958" /><path
       style="fill:#f4d812;fill-opacity:1;fill-rule:nonzero;stroke:#f4d812;stroke-width:4.23333359;stroke-miterlimit:4;stroke-opacity:1;stroke-dasharray:none"
       d="m 57.795554,20.950684 c 0,7.014015 -5.685983,12.7 -12.7,12.7 -7.014016,0 -12.700001,-5.685985 -12.700001,-12.7 0,-7.014019 5.685985,-12.7000004 12.700001,-12.7000004 7.014017,0 12.7,5.6859814 12.7,12.7000004 z"
       id="path3956" /><path
       style="fill:#f4d812;fill-opacity:1;fill-rule:nonzero;stroke:#f4d812;stroke-width:4.23333359;stroke-miterlimit:4;stroke-opacity:1;stroke-dasharray:none"
       d="m 80.860069,14.949704 c 0,7.014015 -5.685983,12.7 -12.7,12.7 -7.014016,0 -12.700001,-5.685985 -12.700001,-12.7 0,-7.0140193 5.685985,-12.7000006 12.700001,-12.7000006 7.014017,0 12.7,5.6859813 12.7,12.7000006 z"
       id="path3854" /></g><g
     style="fill:#ea061a;fill-opacity:1"
     id="g4209"><path
       style="fill:#ea061a;fill-opacity:1;fill-rule:nonzero"
       id="path10"
       d="m 6.7481634,45.119605 5.0738126,-1.301566 c 1.655965,1.981511 4.907415,2.474706 7.537243,1.800086 4.572419,-1.172946 7.445585,-4.844381 6.253887,-9.489904 l -0.0767,-0.298987 c -1.600084,2.74327 -4.089353,4.350662 -7.185891,5.145005 C 11.225762,42.801925 4.35235,38.94244 2.526956,31.826623 c -0.82042,-3.198193 -0.416,-6.625474 1.2608184,-9.50361 1.8018811,-3.092892 4.4153095,-5.133556 7.8785526,-6.021969 3.22746,-0.827928 6.272636,-0.483773 9.140618,1.185031 l -0.664924,-2.592031 4.53677,-1.1638 5.160405,20.116476 C 31.547358,40.505542 29.528434,47.333675 20.7961,49.573748 15.031033,51.052639 9.9446607,49.509308 6.7481614,45.119605 z m 0.2722972,-14.49234 c 1.1960995,4.662679 5.7713294,7.399268 10.5021624,6.185686 4.356842,-1.117645 6.755451,-5.967908 5.700975,-10.078505 C 22.075843,22.260226 17.816361,19.2295 13.21866,20.408931 8.6827625,21.572508 5.857315,26.093049 7.0204606,30.627265 z"
       class="fil0" /><polygon
       style="fill:#ea061a;fill-opacity:1;fill-rule:nonzero"
       id="polygon12"
       points="23.9456,121.925 9.964,121.925 9.964,21.5978 23.9456,21.5978 "
       class="fil0"
       transform="matrix(0.31134755,-0.07986882,0.07986882,0.31134755,19.241134,-0.3444844)" /><path
       style="fill:#ea061a;fill-opacity:1;fill-rule:nonzero"
       id="path14"
       d="m 52.074536,17.156512 c -1.96329,-3.448863 -5.090387,-5.421593 -9.019126,-4.413768 -3.931448,1.008519 -5.957978,4.246048 -6.021918,8.272191 l 15.041044,-3.858423 z m -14.204028,7.667715 c 1.655202,3.583479 5.672526,5.26403 9.346022,4.321681 2.73497,-0.701591 4.83958,-2.719675 5.587513,-5.503677 l 4.770093,-1.223654 c -0.786733,5.397507 -4.010779,9.555728 -9.284976,10.908698 -6.562459,1.683443 -13.578396,-2.2459 -15.357833,-9.182568 -0.421987,-1.645005 -0.531287,-3.254444 -0.334935,-4.826249 0.651299,-5.218913 4.34848,-9.3720764 9.277081,-10.6363924 8.098336,-2.077436 13.788847,3.1573584 15.815614,11.0581754 l -19.818579,5.083986 z"
       class="fil0" /><path
       style="fill:#ea061a;fill-opacity:1;fill-rule:nonzero"
       id="path16"
       d="M 75.543759,11.13604 C 73.580469,7.6871766 70.453372,5.7144466 66.524633,6.7222716 62.593154,7.7307996 60.566655,10.96832 60.502684,14.994471 L 75.543759,11.13604 z M 61.3397,18.803764 c 1.655233,3.58347 5.672525,5.264029 9.346053,4.321673 2.734939,-0.701584 4.839548,-2.719668 5.587512,-5.503677 l 4.770063,-1.223647 c -0.786703,5.397499 -4.01078,9.555728 -9.284945,10.90869 -6.56249,1.683451 -13.578396,-2.2459 -15.357833,-9.182568 C 55.978563,16.47923 55.869232,14.869799 56.065584,13.297994 56.716882,8.0790806 60.414095,3.9259096 65.342664,2.6616019 73.441001,0.584166 79.131512,5.8189596 81.158279,13.719778 L 61.3397,18.803764 z"
       class="fil0" /></g></g></svg>